<svg xmlns="http://www.w3.org/2000/svg" width="48" height="48" fill="none"><path fill="#232536" d="M25.0305 13.914 14.04 12.2445c-.51-.0795-1.0305.06-1.4205.39-.39.3405-.6195.8295-.6195 1.3395v21.0705c0 .5505.45 1.0005 1.0005 1.0005h3.2505v-5.25c0-.9705.78-1.7505 1.7505-1.7505h2.5005c.9705 0 1.7505.78 1.7505 1.7505v5.25h4.2495v-20.4a1.7557 1.7557 0 0 0-1.4715-1.731Zm-7.53 12.8805h-1.5c-.414 0-.75-.336-.75-.75s.336-.75.75-.75h1.5c.414 0 .75.336.75.75s-.336.75-.75.75Zm0-3h-1.5c-.414 0-.75-.336-.75-.75s.336-.75.75-.75h1.5c.414 0 .75.336.75.75s-.336.75-.75.75Zm0-3h-1.5c-.414 0-.75-.336-.75-.75s.336-.75.75-.75h1.5c.414 0 .75.336.75.75s-.336.75-.75.75Zm0-3h-1.5c-.414 0-.75-.336-.75-.75s.336-.75.75-.75h1.5c.414 0 .75.336.75.75s-.336.75-.75.75Zm4.9995 9H21c-.414 0-.75-.336-.75-.75s.336-.75.75-.75h1.5c.414 0 .75.336.75.75s-.336.75-.75.75Zm0-3H21c-.414 0-.75-.336-.75-.75s.336-.75.75-.75h1.5c.414 0 .75.336.75.75s-.336.75-.75.75Zm0-3H21c-.414 0-.75-.336-.75-.75s.336-.75.75-.75h1.5c.414 0 .75.336.75.75s-.336.75-.75.75Zm0-3H21c-.414 0-.75-.336-.75-.75s.336-.75.75-.75h1.5c.414 0 .75.336.75.75s-.336.75-.75.75Z"/><path fill="#FFD050" d="M34.6205 22.887 27.5 21.396v14.649h6.75c.9645 0 1.7505-.7845 1.7505-1.7505V24.597c0-.8265-.564-1.53-1.38-1.71Zm-2.37 10.158h-1.5c-.414 0-.75-.336-.75-.75s.336-.75.75-.75h1.5c.414 0 .75.336.75.75s-.336.75-.75.75Zm0-3h-1.5c-.414 0-.75-.336-.75-.75s.336-.75.75-.75h1.5c.414 0 .75.336.75.75s-.336.75-.75.75Zm0-3h-1.5c-.414 0-.75-.336-.75-.75s.336-.75.75-.75h1.5c.414 0 .75.336.75.75s-.336.75-.75.75Z"/></svg>