<svg xmlns="http://www.w3.org/2000/svg" width="23" height="24" fill="none"><g clip-path="url(#a)"><path fill="#232536" d="M5.1156 15.4253H2.5317c-.9318 0-1.6899.7926-1.6899 1.7667v5.723c0 .5983.4656 1.085 1.0378 1.085h3.888c.5723 0 1.0378-.4867 1.0378-1.085v-5.7229c0-.9742-.758-1.7668-1.6898-1.7668ZM12.6996 11.9492h-2.5839c-.9318 0-1.69.7926-1.69 1.7667v9.1989c0 .5983.4657 1.085 1.038 1.085h3.8879c.5723 0 1.0378-.4867 1.0378-1.085v-9.1989c0-.9742-.758-1.7667-1.6898-1.7667ZM20.4261 7.9888h-2.5838c-.9319 0-1.69.7925-1.69 1.7666v13.1594c0 .5983.4656 1.085 1.0378 1.085h3.888c.5723 0 1.0378-.4867 1.0378-1.085V9.7555c.0001-.9742-.758-1.7667-1.6898-1.7667Z"/><path fill="#FFD050" d="M18.3681.6682c-.3161-.4671-.8301-.714-1.3752-.6618l-4.8801.472c-.545.0528-1.0069.3945-1.2357.9142-.2288.5197-.1767 1.1089.1394 1.576l.2724.4024-6.0571 4.3758-.0062.0045c-.4298.318-.7154.792-.8043 1.3345-.0888.5426.0298 1.0888.3339 1.5382.3041.4493.7575.7479 1.2764.8408.1125.0201.225.0301.337.0301.4027 0 .7951-.1292 1.131-.3765l6.0668-4.3827.2812.4154c.2881.4256.7404.6687 1.2307.6687.0478 0 .096-.0023.1445-.007.5449-.0527 1.0069-.3945 1.2357-.9142l2.0491-4.6545c.2288-.5198.1767-1.109-.1395-1.576Z"/></g><defs><clipPath id="a"><path fill="#fff" d="M0 0h22.9565v24H0z"/></clipPath></defs></svg>