<svg width="4819" height="2835" viewBox="0 0 4819 2835" fill="none" xmlns="http://www.w3.org/2000/svg">
<path d="M2407.5 507.93H3246.7L3361.03 454.75H4239.56C4335.08 463.48 4362.38 492.17 4378.28 573.08C4399.8 954.21 4429.02 1334.6 4465.95 1714.23C4483.15 1891.08 4502.03 2067.77 4522.58 2244.29C4522.58 2244.29 4533.18 2293.06 4533.43 2374.42C4533.69 2456.02 4521.34 2485.08 4506.96 2505.2C4487.24 2532.8 4459.91 2548.86 4449.06 2555.23C4420.57 2571.98 4394.95 2578.12 4382.74 2580.74C4277.16 2603.4 3473.66 2614.96 3446.82 2615.65C3359.77 2617.88 3305.31 2600.29 3278.51 2589.28C3272.08 2586.64 3212.93 2553.6 3162.97 2493.87C3162.38 2493.17 3163.06 2493.97 3130.23 2452.52C3079.6 2388.58 3081.98 2391.62 3080.03 2389.16C3065.62 2370.97 3051.2 2352.78 3036.79 2334.58C3031.63 2326.92 3024.45 2317.62 3013.53 2310.23C2995.81 2298.24 2971.16 2293.65 2927.03 2293.36H2407.5M2407.93 507.93H1568.73L1454.4 454.75H575.874C480.354 463.48 453.054 492.17 437.154 573.08C415.634 954.21 386.414 1334.6 349.484 1714.23C332.284 1891.08 313.404 2067.77 292.854 2244.29C292.854 2244.29 282.254 2293.06 282.004 2374.42C281.744 2456.02 294.094 2485.08 308.474 2505.2C328.194 2532.8 355.524 2548.86 366.374 2555.23C394.864 2571.98 420.484 2578.12 432.694 2580.74C538.274 2603.4 1341.77 2614.96 1368.61 2615.65C1455.66 2617.88 1510.12 2600.29 1536.92 2589.28C1543.35 2586.64 1602.5 2553.6 1652.46 2493.87C1653.05 2493.17 1652.37 2493.97 1685.2 2452.52C1735.83 2388.58 1733.45 2391.62 1735.4 2389.16C1749.81 2370.97 1764.23 2352.78 1778.64 2334.58C1783.8 2326.92 1790.98 2317.62 1801.9 2310.23C1819.62 2298.24 1844.27 2293.65 1888.4 2293.36H2407.93M4130.58 2425.66C4130.58 2430.35 4126.77 2434.16 4122.08 2434.16C4117.39 2434.16 4113.58 2430.35 4113.58 2425.66C4113.58 2420.97 4117.39 2417.16 4122.08 2417.16C4126.77 2417.16 4130.58 2420.97 4130.58 2425.66ZM4130.58 2085.5C4130.58 2090.19 4126.77 2094 4122.08 2094C4117.39 2094 4113.58 2090.19 4113.58 2085.5C4113.58 2080.81 4117.39 2077 4122.08 2077C4126.77 2077 4130.58 2080.81 4130.58 2085.5ZM4130.58 1178.41C4130.58 1183.1 4126.77 1186.91 4122.08 1186.91C4117.39 1186.91 4113.58 1183.1 4113.58 1178.41C4113.58 1173.72 4117.39 1169.91 4122.08 1169.91C4126.77 1169.91 4130.58 1173.72 4130.58 1178.41ZM4130.58 838.26C4130.58 842.954 4126.77 846.76 4122.08 846.76C4117.39 846.76 4113.58 842.954 4113.58 838.26C4113.58 833.566 4117.39 829.76 4122.08 829.76C4126.77 829.76 4130.58 833.566 4130.58 838.26ZM3101.61 1555.42C3101.61 1560.11 3097.8 1563.92 3093.11 1563.92C3088.42 1563.92 3084.61 1560.11 3084.61 1555.42C3084.61 1550.73 3088.42 1546.92 3093.11 1546.92C3097.8 1546.92 3101.61 1550.73 3101.61 1555.42ZM688.854 2425.66C688.854 2430.35 692.66 2434.16 697.354 2434.16C702.049 2434.16 705.854 2430.35 705.854 2425.66C705.854 2420.97 702.049 2417.16 697.354 2417.16C692.66 2417.16 688.854 2420.97 688.854 2425.66ZM688.854 2085.5C688.854 2090.19 692.66 2094 697.354 2094C702.049 2094 705.854 2090.19 705.854 2085.5C705.854 2080.81 702.049 2077 697.354 2077C692.66 2077 688.854 2080.81 688.854 2085.5ZM688.854 1178.41C688.854 1183.1 692.66 1186.91 697.354 1186.91C702.049 1186.91 705.854 1183.1 705.854 1178.41C705.854 1173.72 702.049 1169.91 697.354 1169.91C692.66 1169.91 688.854 1173.72 688.854 1178.41ZM688.854 838.26C688.854 842.954 692.66 846.76 697.354 846.76C702.049 846.76 705.854 842.954 705.854 838.26C705.854 833.566 702.049 829.76 697.354 829.76C692.66 829.76 688.854 833.566 688.854 838.26ZM1717.82 1555.42C1717.82 1560.11 1721.63 1563.92 1726.32 1563.92C1731.02 1563.92 1734.82 1560.11 1734.82 1555.42C1734.82 1550.73 1731.02 1546.92 1726.32 1546.92C1721.63 1546.92 1717.82 1550.73 1717.82 1555.42Z" stroke="#020203"/>
</svg>
