<svg xmlns="http://www.w3.org/2000/svg" width="16" height="16" fill="none"><g fill="#232536" clip-path="url(#a)"><path d="M8 1.4406c2.1375 0 2.3906.0094 3.2313.0469.7812.0344 1.2031.1656 1.4843.275.3719.1438.6407.3187.9188.5969.2812.2812.4531.5469.5969.9187.1093.2813.2406.7063.275 1.4844.0375.8438.0468 1.0969.0468 3.2313 0 2.1374-.0093 2.3906-.0468 3.2312-.0344.7813-.1657 1.2031-.275 1.4844-.1438.3719-.3188.6406-.5969.9187-.2813.2813-.5469.4532-.9188.5969-.2812.1094-.7062.2406-1.4843.275-.8438.0375-1.0969.0469-3.2313.0469-2.1375 0-2.3906-.0094-3.2313-.0469-.7812-.0344-1.203-.1656-1.4843-.275-.3719-.1437-.6407-.3188-.9188-.5969-.2812-.2812-.4531-.5468-.5969-.9187-.1093-.2813-.2406-.7063-.275-1.4844-.0374-.8437-.0468-1.0969-.0468-3.2312 0-2.1376.0093-2.3907.0468-3.2313.0344-.7813.1657-1.2031.275-1.4844.1438-.3718.3188-.6406.597-.9187.2812-.2813.5468-.4531.9187-.5969.2812-.1094.7062-.2406 1.4843-.275C5.6094 1.45 5.8625 1.4406 8 1.4406ZM8 0C5.8281 0 5.5563.0094 4.7031.0469c-.85.0375-1.4344.175-1.9406.3719-.5281.2062-.975.478-1.4188.925-.4468.4437-.7187.8906-.925 1.4156C.222 3.2687.0844 3.85.047 4.7.0094 5.5563 0 5.8281 0 8s.0094 2.4437.0469 3.2969c.0375.85.175 1.4343.3719 1.9406.2062.5281.478.975.925 1.4187.4437.4438.8906.7188 1.4156.9219.5093.1969 1.0906.3344 1.9406.3719.8531.0375 1.125.0469 3.2969.0469s2.4437-.0094 3.2969-.0469c.85-.0375 1.4343-.175 1.9406-.3719.525-.2031.9719-.4781 1.4156-.9219.4438-.4437.7188-.8906.9219-1.4156.1969-.5094.3344-1.0906.3719-1.9406.0375-.8531.0468-1.125.0468-3.2969s-.0093-2.4437-.0468-3.2969c-.0375-.85-.175-1.4343-.3719-1.9406-.1969-.5312-.4688-.9781-.9156-1.4219C14.2125.9 13.7656.625 13.2406.422 12.7313.225 12.15.0875 11.3.05 10.4438.0094 10.1719 0 8 0Z"/><path d="M8 3.8906C5.7313 3.8906 3.8906 5.7313 3.8906 8c0 2.2688 1.8407 4.1094 4.1094 4.1094S12.1094 10.2688 12.1094 8c0-2.2687-1.8407-4.1094-4.1094-4.1094Zm0 6.775c-1.4719 0-2.6656-1.1937-2.6656-2.6656S6.528 5.3344 8 5.3344 10.6656 6.528 10.6656 8 9.4719 10.6656 8 10.6656ZM13.2313 3.7284c0 .5313-.4313.9594-.9594.9594-.5313 0-.9594-.4313-.9594-.9594 0-.5312.4313-.9594.9594-.9594s.9594.4313.9594.9594Z"/></g><defs><clipPath id="a"><path fill="#fff" d="M0 0h16v16H0z"/></clipPath></defs></svg>