<svg xmlns="http://www.w3.org/2000/svg" width="16" height="16" fill="none"><g clip-path="url(#a)"><path fill="#232536" d="M14.8156 0H1.1813C.528 0 0 .5156 0 1.1531v13.6907C0 15.4813.5281 16 1.1812 16h13.6344C15.4688 16 16 15.4813 16 14.8469V1.1531C16 .5156 15.4688 0 14.8156 0ZM4.7469 13.6344h-2.375V5.9969h2.375v7.6375ZM3.5594 4.9563c-.7625 0-1.3782-.6157-1.3782-1.375 0-.7594.6157-1.375 1.3782-1.375.7593 0 1.375.6156 1.375 1.375 0 .7562-.6157 1.375-1.375 1.375Zm10.075 8.6781h-2.3719V9.9219c0-.8844-.0156-2.025-1.2344-2.025-1.2344 0-1.4219.9656-1.4219 1.9625v3.775H6.2375V5.9969h2.275v1.0437h.0313c.3156-.6 1.0906-1.2344 2.2437-1.2344 2.4031 0 2.8469 1.5813 2.8469 3.6376v4.1906Z"/></g><defs><clipPath id="a"><path fill="#fff" d="M0 0h16v16H0z"/></clipPath></defs></svg>