<svg xmlns="http://www.w3.org/2000/svg" width="153" height="32" fill="none"><g fill="#282938" clip-path="url(#a)"><path d="M49.3722 25.4924a3.4365 3.4365 0 0 1-2.1645-.6217 2.0183 2.0183 0 0 1-.8164-1.6966V11.1682a.3352.3352 0 0 1 .0961-.2795.338.338 0 0 1 .1287-.0804.3381.3381 0 0 1 .151-.0157h2.1774c.2462 0 .3629.1295.3629.3756v11.0734c0 .4922.2204.7382.6739.7382.1923.008.3847-.0139.5703-.0647.2592 0 .4018.0777.4148.3108l.1944 1.6189a.3366.3366 0 0 1-.3111.4016 4.8888 4.8888 0 0 1-1.4775.246ZM61.6213 24.1067a6.1071 6.1071 0 0 1-3.8882 1.3975 6.1071 6.1071 0 0 1-3.8882-1.3975 5.1789 5.1789 0 0 1-1.5011-3.6458 5.179 5.179 0 0 1 1.5011-3.6459 6.1335 6.1335 0 0 1 3.8882-1.3897c1.4179 0 2.792.4911 3.8882 1.3897a5.2564 5.2564 0 0 1 1.464 3.6395 5.2563 5.2563 0 0 1-1.464 3.6393v.0129Zm-5.7286-1.7096a2.7617 2.7617 0 0 0 3.7067 0 2.8996 2.8996 0 0 0 0-3.8077 2.7616 2.7616 0 0 0-3.7067 0 2.8995 2.8995 0 0 0 0 3.8077ZM75.0747 15.7527c.2463 0 .3629.1295.3629.3756v9.2861a4.2212 4.2212 0 0 1-1.4386 3.3285 5.4453 5.4453 0 0 1-3.7716 1.2952 6.068 6.068 0 0 1-3.5123-.9713 3.8875 3.8875 0 0 1-1.1184-1.1189 3.8824 3.8824 0 0 1-.5795-1.4714c0-.2591 0-.3756.3499-.3756h2.1775a.4797.4797 0 0 1 .4276.2979c.1412.3934.4228.7208.7906.9195a3.0346 3.0346 0 0 0 1.4517.3367 2.2943 2.2943 0 0 0 1.6719-.5957 2.2003 2.2003 0 0 0 .6091-1.619v-.8159a4.3436 4.3436 0 0 1-2.6958.8418 5.0304 5.0304 0 0 1-3.6808-1.4117 5.1785 5.1785 0 0 1-1.4568-3.6004 5.1786 5.1786 0 0 1 1.4568-3.6005 5.0681 5.0681 0 0 1 3.6808-1.3987 4.3566 4.3566 0 0 1 2.7606.8936v-.2073a.3364.3364 0 0 1 .2161-.3552.3373.3373 0 0 1 .1469-.0203l2.1514-.013Zm-5.0287 7.4082a2.2819 2.2819 0 0 0 1.7756-.7641 3.1714 3.1714 0 0 0 0-3.8854 2.269 2.269 0 0 0-1.7627-.7512 2.335 2.335 0 0 0-1.8015.7641 2.7444 2.7444 0 0 0-.6999 1.9427 2.796 2.796 0 0 0 .6869 1.9298 2.347 2.347 0 0 0 1.8016.7641ZM86.6206 24.1059a6.1335 6.1335 0 0 1-3.8882 1.3897 6.1333 6.1333 0 0 1-3.8882-1.3897 5.2691 5.2691 0 0 1-1.4653-3.6458 5.269 5.269 0 0 1 1.4653-3.6459 6.1465 6.1465 0 0 1 7.7764 0 5.256 5.256 0 0 1 0 7.2787v.013Zm-5.7416-1.7096a2.5935 2.5935 0 0 0 1.8663.7123 2.5945 2.5945 0 0 0 .9977-.1717c.318-.1224.6088-.306.8557-.5406a2.9384 2.9384 0 0 0 0-3.8077 2.5942 2.5942 0 0 0-1.8534-.7124 2.5937 2.5937 0 0 0-1.8663.7124 2.9387 2.9387 0 0 0 0 3.8077ZM92.7642 13.5513a1.8802 1.8802 0 0 1-2.4755 0 1.567 1.567 0 0 1-.4918-1.1397 1.5653 1.5653 0 0 1 .4918-1.1397 1.9185 1.9185 0 0 1 2.4755 0 1.5663 1.5663 0 0 1 0 2.2794Zm.2723 11.9412a3.4873 3.4873 0 0 1-2.1645-.6218 2.0447 2.0447 0 0 1-.6079-.7507 2.0444 2.0444 0 0 1-.1957-.9459v-7.0454a.3379.3379 0 0 1 .0962-.2796.3376.3376 0 0 1 .2797-.0961h2.1774c.2463 0 .3629.1296.3629.3757v6.113c0 .4921.2204.7382.661.7382a2.0083 2.0083 0 0 0 .5832-.0648c.2592 0 .4018.0778.4148.3108l.1943 1.619a.3366.3366 0 0 1-.311.4015 4.9184 4.9184 0 0 1-1.4904.2461ZM102.849 15.4419a5.0872 5.0872 0 0 1 1.996.3234 5.0832 5.0832 0 0 1 1.711 1.0754 5.3069 5.3069 0 0 1 1.427 3.62c0 1.3433-.51 2.637-1.427 3.6199a5.0304 5.0304 0 0 1-1.708 1.0854 5.0454 5.0454 0 0 1-1.999.3262 4.4592 4.4592 0 0 1-2.708-.8418v4.6754c0 .2461-.13.3627-.376.3627h-2.1774a.3123.3123 0 0 1-.2772-.0857.3109.3109 0 0 1-.0857-.277V18.7057a.6729.6729 0 0 0-.1903-.574.6741.6741 0 0 0-.5744-.1902h-.4278c-.285 0-.4277-.1035-.4277-.3108v-1.5282a.4144.4144 0 0 1 .0736-.2663.414.414 0 0 1 .2245-.1611 3.8938 3.8938 0 0 1 1.3998-.2332 2.3977 2.3977 0 0 1 2.346 1.2952 4.37 4.37 0 0 1 3.2006-1.2952Zm-2.021 6.955a2.4746 2.4746 0 0 0 1.788.7634 2.4758 2.4758 0 0 0 1.789-.7634 2.7944 2.7944 0 0 0 .713-1.9815 2.7596 2.7596 0 0 0-.713-1.9817 2.4758 2.4758 0 0 0-1.789-.7634 2.4746 2.4746 0 0 0-1.788.7634 2.86 2.86 0 0 0-.687 1.9817 2.9026 2.9026 0 0 0 .687 1.9815ZM114.098 25.4921a6.2523 6.2523 0 0 1-3.331-.803 3.1678 3.1678 0 0 1-1.014-.9749 3.1694 3.1694 0 0 1-.489-1.3174c0-.2591.091-.3886.376-.3886h1.905a.4898.4898 0 0 1 .427.2849c.273.6994.985 1.0491 2.126 1.0491.398.0182.794-.0619 1.154-.2332a.7593.7593 0 0 0 .308-.2563.7568.7568 0 0 0 .133-.3782c0-.3368-.208-.5699-.623-.7254a7.0087 7.0087 0 0 0-1.516-.3237 14.47 14.47 0 0 1-1.815-.3238 2.9791 2.9791 0 0 1-1.516-.8677 2.7815 2.7815 0 0 1-.519-1.0026 2.779 2.779 0 0 1-.076-1.1259 2.7727 2.7727 0 0 1 1.152-1.8865 5.3434 5.3434 0 0 1 3.136-.8289 5.7283 5.7283 0 0 1 3.059.7642c.374.2116.696.504.943.8557.246.3518.412.7541.484 1.1776 0 .259-.118.3886-.351.3886h-1.918a.405.405 0 0 1-.231-.0565.4047.4047 0 0 1-.158-.1766 1.2967 1.2967 0 0 0-.674-.6865 2.2838 2.2838 0 0 0-1.115-.259 2.2526 2.2526 0 0 0-1.101.2202.6453.6453 0 0 0-.298.2343.6418.6418 0 0 0-.116.3614c.008.1772.073.347.185.4845a.8233.8233 0 0 0 .436.2797 7.0437 7.0437 0 0 0 1.542.3886c.607.0796 1.208.1921 1.802.3367a2.98 2.98 0 0 1 1.517.8677c.218.2392.386.5191.495.8236.109.3045.156.6277.14.9507a2.593 2.593 0 0 1-.305 1.2856 2.5967 2.5967 0 0 1-.901.968 5.6655 5.6655 0 0 1-3.253.8936ZM132.257 24.8449a.3779.3779 0 0 1-.005.1382.3479.3479 0 0 1-.06.1252.3399.3399 0 0 1-.102.0926.3534.3534 0 0 1-.131.0454 5.006 5.006 0 0 1-1.464.2461 2.8803 2.8803 0 0 1-1.445-.2234 2.881 2.881 0 0 1-1.148-.9033 4.6916 4.6916 0 0 1-3.304 1.1267 4.0211 4.0211 0 0 1-3.034-1.1785 4.2535 4.2535 0 0 1-.895-1.4431 4.2643 4.2643 0 0 1-.258-1.6783v-5.0639c0-.2461.116-.3757.363-.3757h2.178c.245 0 .362.1296.362.3757v4.6754a2.2942 2.2942 0 0 0 .558 1.5931c.19.2019.422.3607.678.4657.258.105.534.1537.812.143a2.1512 2.1512 0 0 0 1.555-.5699c.198-.2034.352-.4451.452-.7102.1-.2651.145-.5479.132-.831v-4.7661c0-.2461.116-.3757.362-.3757h2.204c.246 0 .362.1296.362.3757v6.1001c0 .5051.221.7512.649.7512.2.0077.402-.0141.596-.0649a.3388.3388 0 0 1 .151-.0071.3381.3381 0 0 1 .277.3181l.155 1.6189ZM152.851 24.8452a.338.338 0 0 1 .003.1416.3266.3266 0 0 1-.058.1294.3188.3188 0 0 1-.107.0925.325.325 0 0 1-.136.038 5.0395 5.0395 0 0 1-1.491.246 3.4671 3.4671 0 0 1-2.165-.6216 2.029 2.029 0 0 1-.647-.7397 2.0125 2.0125 0 0 1-.22-.957v-3.0436a2.2945 2.2945 0 0 0-.546-1.593 1.824 1.824 0 0 0-.657-.4673 1.8365 1.8365 0 0 0-.794-.1414 1.6169 1.6169 0 0 0-.713.136 1.608 1.608 0 0 0-.582.4339c-.343.434-.518.9763-.493 1.5283v4.779c0 .2461-.117.3756-.363.3756h-2.191a.34.34 0 0 1-.151-.0157.3367.3367 0 0 1-.128-.0803.3358.3358 0 0 1-.097-.2796v-4.6755a2.3928 2.3928 0 0 0-.505-1.593 1.6849 1.6849 0 0 0-1.296-.6087 1.882 1.882 0 0 0-.774.1328 1.8723 1.8723 0 0 0-.651.4371 2.136 2.136 0 0 0-.532 1.5283v4.779a.3358.3358 0 0 1-.097.2796.3367.3367 0 0 1-.128.0803.337.337 0 0 1-.151.0157h-2.112c-.247 0-.364-.1295-.364-.3756v-6.1001a.677.677 0 0 0-.026-.3096.678.678 0 0 0-.164-.2644.6717.6717 0 0 0-.265-.1631.6696.6696 0 0 0-.309-.027h-.428c-.285 0-.428-.1036-.428-.3109V16.103a.4146.4146 0 0 1 .074-.2664.4117.4117 0 0 1 .225-.161 3.882 3.882 0 0 1 1.399-.2332 2.4385 2.4385 0 0 1 2.308 1.1916 4.3696 4.3696 0 0 1 1.521-.9387 4.3854 4.3854 0 0 1 1.771-.2529 3.7184 3.7184 0 0 1 1.699.3196 3.7172 3.7172 0 0 1 1.372 1.0533 4.2802 4.2802 0 0 1 1.543-1.0681 4.284 4.284 0 0 1 1.853-.3048 4.0962 4.0962 0 0 1 1.659.2676c.529.2028 1.01.513 1.412.911.394.4151.699.9058.898 1.4423.198.5366.285 1.1078.256 1.679v2.4996c0 .4922.22.7383.635.7383a1.941 1.941 0 0 0 .596-.0648c.268 0 .41.1036.428.3109l.117 1.6189ZM.8732 14.0697a17.7296 17.7296 0 0 1 6.291-9.6882A17.7514 17.7514 0 0 1 18.0915.6201c3.9605 0 7.807 1.324 10.9273 3.7614a17.7295 17.7295 0 0 1 6.2911 9.6882h-1.5553a12.5653 12.5653 0 0 0-7.3488 2.2407 3.7058 3.7058 0 0 1-.3888.246h-.1814a3.7071 3.7071 0 0 1-.3889-.246 13.187 13.187 0 0 0-7.3552-2.2414c-2.6202 0-5.1809.7803-7.3552 2.2414a3.7058 3.7058 0 0 1-.3888.246h-.1815a3.7138 3.7138 0 0 1-.3888-.246 12.5652 12.5652 0 0 0-7.3487-2.2407H.8732Zm30.0818 8.1206a4.3697 4.3697 0 0 1 2.7996-.9195h2.0867v-4.1575h-2.0867a8.2734 8.2734 0 0 0-4.964 1.5801 4.7197 4.7197 0 0 1-5.599 0 8.8185 8.8185 0 0 0-10.0705 0 4.7199 4.7199 0 0 1-5.599 0 8.2734 8.2734 0 0 0-5.0288-1.5801H.3418v4.1575h2.0867a4.3695 4.3695 0 0 1 2.7995.9195 8.7924 8.7924 0 0 0 10.0576 0 4.3948 4.3948 0 0 1 2.7995-.9195 4.3439 4.3439 0 0 1 2.7995.9195 8.818 8.818 0 0 0 5.0352 1.5788 8.818 8.818 0 0 0 5.0352-1.5788Zm0 7.4341a4.3697 4.3697 0 0 1 2.7996-.9195h2.0867v-4.1574h-2.0867a8.2726 8.2726 0 0 0-4.964 1.58 4.7197 4.7197 0 0 1-5.599 0 8.8177 8.8177 0 0 0-5.0353-1.5788 8.8174 8.8174 0 0 0-5.0352 1.5788 4.7199 4.7199 0 0 1-5.599 0 8.2727 8.2727 0 0 0-5.0288-1.58H.3418v4.1574h2.0867a4.3695 4.3695 0 0 1 2.7995.9195 8.7912 8.7912 0 0 0 5.0288 1.58 8.7916 8.7916 0 0 0 5.0288-1.58 4.3953 4.3953 0 0 1 2.7995-.9195 4.3439 4.3439 0 0 1 2.7995.9195 8.818 8.818 0 0 0 10.0704 0Z"/></g><defs><clipPath id="a"><path fill="#fff" d="M0 0h153v32H0z"/></clipPath></defs></svg>