<svg xmlns="http://www.w3.org/2000/svg" width="136" height="32" fill="none"><g fill="#282938" clip-path="url(#a)"><path d="M39 9.9h3.4196v13.8674H39V9.9001Zm4.7833 8.6512c0-3.4349 2.1305-5.4937 5.3265-5.4937s5.3265 2.0588 5.3265 5.4937c0 3.4347-2.056 5.5149-5.3265 5.5149s-5.3265-2.0055-5.3265-5.5149Zm7.2654 0c0-1.8881-.7351-2.9975-1.907-2.9975-1.1718 0-1.8962 1.0667-1.8962 2.9975 0 1.9307.7244 2.9867 1.8962 2.9867 1.1719 0 1.9282-1.056 1.9282-2.9761l-.0212-.0106Zm4.7512 5.9309h3.3025c.1504.3561.4129.653.7477.8456a1.766 1.766 0 0 0 1.106.2211c1.3103 0 1.9921-.704 1.9921-1.7494v-1.9201h.0106a3.2726 3.2726 0 0 1-1.3089 1.4294 3.2667 3.2667 0 0 1-1.887.4373c-2.5035 0-4.1654-1.9094-4.1654-5.1948 0-3.2856 1.5874-5.3337 4.2613-5.3337a3.267 3.267 0 0 1 1.918.4994 3.2741 3.2741 0 0 1 1.2779 1.5167h-.0959v-1.9307h3.3878v10.3898c0 2.5068-2.2159 4.0749-5.4758 4.0749-2.9615-.0107-4.8578-1.3654-5.0495-3.2748l-.0214-.0107Zm7.1589-5.9309c0-1.6748-.7669-2.7309-1.9815-2.7309-1.2144 0-1.9601 1.0668-1.9601 2.7309 0 1.664.7351 2.6454 1.9601 2.6454 1.2252 0 1.9815-.9067 1.9815-2.6454Zm4.7407 0c0-3.4349 2.1306-5.4937 5.3265-5.4937 3.196 0 5.3266 2.0588 5.3266 5.4937 0 3.4347-2.0667 5.5149-5.3266 5.5149-3.2598 0-5.3052-2.0055-5.3052-5.5149h-.0213Zm7.2654 0c0-1.8881-.7457-2.9975-1.9069-2.9975s-1.8963 1.0667-1.8963 2.9975c0 1.9307.7244 2.9867 1.8963 2.9867s1.9283-1.056 1.9283-2.9761l-.0214-.0106Zm4.7726-7.7765a1.749 1.749 0 0 1 1.0252-1.6684 1.746 1.746 0 0 1 1.9286.33 1.7512 1.7512 0 0 1-.2287 2.7123 1.7457 1.7457 0 0 1-.978.3009 1.6812 1.6812 0 0 1-1.2102-.4708 1.6862 1.6862 0 0 1-.5155-1.1933l-.0214-.0107Zm0 2.5175h3.4623V23.81h-3.409l-.0533-10.5178Zm15.9157 5.259c0 3.4241-1.5338 5.4082-4.1439 5.4082a3.2682 3.2682 0 0 1-1.9048-.4729 3.2741 3.2741 0 0 1-1.2912-1.4792h-.0638v5.1843h-3.4201V13.3242h3.3983v1.8774h.0647a3.2926 3.2926 0 0 1 1.2777-1.519 3.2877 3.2877 0 0 1 1.9174-.5077c2.6848-.0214 4.2294 1.9521 4.2294 5.3869l-.0637-.0106Zm-3.4832 0c0-1.6641-.7782-2.7415-1.982-2.7415-1.2039 0-1.9603 1.0667-1.9704 2.7415-.0109 1.6747.7665 2.7307 1.9704 2.7307 1.2038 0 2.0458-.992 2.0458-2.7201l-.0638-.0106Zm9.321-5.5044c2.866 0 4.645 1.3548 4.666 3.5309h-3.121c0-.7574-.628-1.2267-1.566-1.2267-.938 0-1.385.3627-1.385.9067 0 .544.394.7147 1.183.8747l2.194.448c2.131.4481 2.983 1.3015 2.983 2.8909 0 2.1333-1.971 3.5841-4.9 3.5841-2.9301 0-4.8374-1.4081-4.9751-3.5521h3.3127c.0957.7786.7134 1.2373 1.7154 1.2373 1.001 0 1.47-.32 1.47-.8854 0-.5653-.319-.6613-1.14-.832l-1.9816-.416c-2.056-.4373-3.1322-1.5147-3.1322-3.1255.0646-2.0908 1.8536-3.4242 4.7408-3.4242l-.064-.0107Zm16.406 10.7526h-3.313v-1.9735h-.064a3.0042 3.0042 0 0 1-3.057 2.1868 3.6502 3.6502 0 0 1-1.505-.2711 3.649 3.649 0 0 1-1.261-.8637 3.6427 3.6427 0 0 1-.799-1.3048 3.659 3.659 0 0 1-.196-1.5179v-6.7523h3.42v6.0163c0 1.2374.65 1.9094 1.715 1.9094.25-.0019.496-.0574.723-.1629.226-.1055.428-.2584.591-.4485.162-.1902.282-.4129.352-.6534.068-.2405.085-.4931.049-.7406v-5.9203h3.409l-.064 10.4965Zm1.651-10.5072h3.324v2.0268h.074a3.0563 3.0563 0 0 1 1.119-1.6207 3.0472 3.0472 0 0 1 1.875-.5981 2.726 2.726 0 0 1 1.891.5493 2.7335 2.7335 0 0 1 1.028 1.6801h.149a3.2014 3.2014 0 0 1 1.22-1.6585 3.1928 3.1928 0 0 1 1.976-.5709c.468-.0178.934.0634 1.368.2385.434.175.827.4398 1.151.7772.325.3373.575.7395.734 1.1804.159.4407.223.9101.189 1.3774V23.81h-3.442v-6.2616c0-1.0667-.501-1.6641-1.47-1.6641a1.4876 1.4876 0 0 0-.625.1263c-.196.0867-.373.215-.515.3761a1.499 1.499 0 0 0-.312.5572 1.5056 1.5056 0 0 0-.05.6365V23.81h-3.26v-6.2936c0-1.0667-.522-1.6321-1.459-1.6321a1.5212 1.5212 0 0 0-.631.1315 1.5061 1.5061 0 0 0-.52.3809 1.5151 1.5151 0 0 0-.317.5622c-.064.2078-.083.427-.056.6429V23.81h-3.419l-.022-10.5178ZM32.2361 10.8063c0-2.1231-.6403-4.1967-1.8371-5.9493A10.5274 10.5274 0 0 0 25.5289.9845a10.5122 10.5122 0 0 0-6.2031-.4438 10.523 10.523 0 0 0-5.3706 3.14H.6602V31.778H28.731V18.6467a10.5289 10.5289 0 0 0 2.5874-3.546 10.544 10.544 0 0 0 .9176-4.2944Zm-5.4012 0a5.1466 5.1466 0 0 1-.8602 2.8595 5.136 5.136 0 0 1-2.3022 1.8983 5.1278 5.1278 0 0 1-2.9677.2969 5.1316 5.1316 0 0 1-2.6318-1.4046 5.1437 5.1437 0 0 1-1.4083-2.6324 5.1489 5.1489 0 0 1 .2904-2.9721 5.1404 5.1404 0 0 1 1.8912-2.3093 5.1297 5.1297 0 0 1 6.4809.635 5.1452 5.1452 0 0 1 1.5077 3.6287ZM23.33 26.3698H6.0613V9.0889h5.2627a10.197 10.197 0 0 0-.1599 1.7174 10.568 10.568 0 0 0 3.0891 7.4568 10.54 10.54 0 0 0 7.4469 3.0931 10.303 10.303 0 0 0 1.6299-.1387v5.1523Z"/></g><defs><clipPath id="a"><path fill="#fff" d="M0 0h136v32H0z"/></clipPath></defs></svg>