<svg xmlns="http://www.w3.org/2000/svg" width="136" height="32" fill="none"><g fill="#282938" clip-path="url(#a)"><path d="M32.9336 7.8061h3.1189V22.968h-3.1189V7.8061ZM37.7974 17.7737a5.545 5.545 0 0 1 .922-3.0637c.6012-.9065 1.4554-1.6126 2.4546-2.0286a5.4116 5.4116 0 0 1 3.1578-.3081 5.4437 5.4437 0 0 1 2.7942 1.5165 5.524 5.524 0 0 1 1.4865 2.8286 5.5559 5.5559 0 0 1-.3234 3.1853 5.4971 5.4971 0 0 1-2.024 2.4656 5.4225 5.4225 0 0 1-3.0408.9131 5.3443 5.3443 0 0 1-2.0907-.4085 5.3841 5.3841 0 0 1-1.7703-1.1943 5.4378 5.4378 0 0 1-1.1732-1.7936 5.478 5.478 0 0 1-.3927-2.1123Zm7.8181 0a2.4079 2.4079 0 0 0-.4295-1.3115 2.373 2.373 0 0 0-1.0762-.8533 2.3504 2.3504 0 0 0-1.3642-.1107 2.3645 2.3645 0 0 0-1.1974.6689 2.4003 2.4003 0 0 0-.6315 1.2255 2.413 2.413 0 0 0 .145 1.3735c.1811.4335.4848.8035.8732 1.0636.3883.2603.844.3991 1.3102.3993a2.2911 2.2911 0 0 0 .9259-.1759 2.308 2.308 0 0 0 .7792-.5348 2.3308 2.3308 0 0 0 .5024-.8045 2.3493 2.3493 0 0 0 .1421-.9401h.0208ZM60.9925 12.5802v9.8736c0 3.4836-2.7031 4.963-5.4373 4.963a5.1577 5.1577 0 0 1-2.7933-.5583 5.2184 5.2184 0 0 1-2.0827-1.9599l2.6303-1.5319c.2132.4337.5522.7915.972 1.0259a2.3427 2.3427 0 0 0 1.3776.2857c.3041.0377.6127.0073.9037-.0893a2.0755 2.0755 0 0 0 .7799-.4694 2.0982 2.0982 0 0 0 .5072-.76 2.1169 2.1169 0 0 0 .138-.9058v-.9548a3.6727 3.6727 0 0 1-1.345 1.0299 3.6422 3.6422 0 0 1-1.6595.3132c-1.3787 0-2.7008-.5528-3.6757-1.5367-.9749-.9839-1.5225-2.3183-1.5225-3.7097 0-1.3914.5476-2.7258 1.5225-3.7097.9749-.9839 2.297-1.5367 3.6757-1.5367a3.6422 3.6422 0 0 1 1.6595.3132 3.6727 3.6727 0 0 1 1.345 1.0299v-1.0492l3.0046-.063Zm-3.0046 4.984a2.5365 2.5365 0 0 0-.369-1.4265 2.5034 2.5034 0 0 0-1.097-.9735 2.4744 2.4744 0 0 0-1.4491-.1868 2.4865 2.4865 0 0 0-1.3042.6638 2.5236 2.5236 0 0 0-.7126 1.2869 2.5395 2.5395 0 0 0 .1233 1.4691c.1854.4663.5048.8659.9171 1.1475a2.4795 2.4795 0 0 0 1.3964.4329c.3249.0235.651-.0219.9573-.1334a2.3264 2.3264 0 0 0 .8214-.514 2.3537 2.3537 0 0 0 .5438-.8063 2.3692 2.3692 0 0 0 .1726-.9597ZM62.7504 17.7738c0-1.09.3203-2.1554.9205-3.0615a5.4688 5.4688 0 0 1 2.4512-2.0288 5.4104 5.4104 0 0 1 3.155-.3117 5.4433 5.4433 0 0 1 2.7945 1.5105 5.5249 5.5249 0 0 1 1.4913 2.8232 5.5554 5.5554 0 0 1-.3148 3.1836 5.4972 5.4972 0 0 1-2.0149 2.47 5.4223 5.4223 0 0 1-3.0351.9234 5.354 5.354 0 0 1-2.0954-.4053 5.3923 5.3923 0 0 1-1.776-1.1932 5.4499 5.4499 0 0 1-1.1789-1.7947 5.4883 5.4883 0 0 1-.3974-2.1155Zm7.8181 0a2.4076 2.4076 0 0 0-.4302-1.3126 2.3746 2.3746 0 0 0-1.0779-.8532 2.3508 2.3508 0 0 0-1.3656-.1089 2.3653 2.3653 0 0 0-1.1973.6719 2.4002 2.4002 0 0 0-.629 1.2281 2.4141 2.4141 0 0 0 .1492 1.3744 2.388 2.388 0 0 0 .8777 1.0614c.3897.259.8465.3961 1.3131.3942a2.2911 2.2911 0 0 0 .9259-.1759 2.3082 2.3082 0 0 0 .7792-.5349 2.3304 2.3304 0 0 0 .5024-.8044 2.3493 2.3493 0 0 0 .1421-.9401h.0104ZM75.0898 9.7998c0-.3694.1086-.7304.3119-1.0376a1.8544 1.8544 0 0 1 .8306-.6879 1.8344 1.8344 0 0 1 1.0691-.1063c.359.072.6888.25.9476.5112.2588.2611.435.594.5065.9563a1.884 1.884 0 0 1-.1054 1.079 1.8644 1.8644 0 0 1-.6815.8383 1.8391 1.8391 0 0 1-1.0282.3147 1.8625 1.8625 0 0 1-1.3025-.5531 1.8976 1.8976 0 0 1-.5481-1.3146Zm.3015 2.7806h3.119v10.3877h-3.119V12.5804ZM91.8591 17.7733a5.2795 5.2795 0 0 1-.2966 2.0332 5.2431 5.2431 0 0 1-1.0478 1.7623 5.1985 5.1985 0 0 1-1.6378 1.221 5.157 5.157 0 0 1-1.9769.4922 3.8359 3.8359 0 0 1-1.7033-.2747 3.869 3.869 0 0 1-1.4157-.9949v5.1309h-3.1189V12.5795h3.1189v.9758a3.862 3.862 0 0 1 1.4165-.9903 3.8276 3.8276 0 0 1 1.7025-.2689 5.163 5.163 0 0 1 1.9695.4894 5.195 5.195 0 0 1 1.6337 1.2127 5.2607 5.2607 0 0 1 1.0503 1.7515 5.2968 5.2968 0 0 1 .3056 2.0236Zm-3.119 0a2.4956 2.4956 0 0 0-.444-1.3592 2.459 2.459 0 0 0-1.1151-.8841 2.435 2.435 0 0 0-1.4141-.1136 2.445 2.445 0 0 0-1.2395.6948 2.4836 2.4836 0 0 0-.6522 1.2711 2.4955 2.4955 0 0 0 .1541 1.4229c.1892.4486.5046.8309.9085 1.0991a2.4362 2.4362 0 0 0 1.3592.4083c.331.0141.6612-.0425.9684-.166a2.3484 2.3484 0 0 0 .8168-.5513 2.364 2.364 0 0 0 .5219-.84 2.395 2.395 0 0 0 .136-.982ZM101.351 19.8517c0 2.3924-2.0794 3.4102-4.2833 3.4102a4.4804 4.4804 0 0 1-2.5914-.5521 4.5379 4.5379 0 0 1-1.8376-1.9242l2.6823-1.5319c.1065.3744.3367.7006.653.924.3162.2235.698.3307 1.083.3036.7382 0 1.1126-.2308 1.1126-.6506 0-1.1436-5.0631-.535-5.0631-4.134 0-2.2665 1.8925-3.3997 4.0341-3.3997a4.4798 4.4798 0 0 1 2.3407.5394 4.5368 4.5368 0 0 1 1.7347 1.6746l-2.6826 1.427a1.528 1.528 0 0 0-.5571-.663 1.5092 1.5092 0 0 0-.825-.2498c-.5408 0-.8636.2098-.8636.577 0 1.1962 5.0633.4092 5.0633 4.2495ZM112.652 12.5801v10.3878h-3.119v-.9759a3.5425 3.5425 0 0 1-1.314.998 3.5112 3.5112 0 0 1-1.618.2926c-2.079 0-3.857-1.5004-3.857-4.3019v-6.4006h3.119v5.9283c-.024.2479.005.4982.085.7336.081.2354.212.4503.382.6298.171.1796.379.3196.609.4103.23.0907.477.1299.722.115 1.124 0 1.913-.6715 1.913-2.0985v-5.7185h3.078ZM130.326 16.5883v6.3796h-3.119v-6.1067c0-1.0493-.489-1.6998-1.477-1.6998-.988 0-1.611.7239-1.611 1.9516v5.8549H121v-6.1067c0-1.0493-.488-1.6998-1.477-1.6998-.987 0-1.611.7239-1.611 1.9516v5.8549h-3.119V12.5801h3.119v.9549a3.1866 3.1866 0 0 1 1.228-.9721 3.1565 3.1565 0 0 1 1.538-.2661 3.0241 3.0241 0 0 1 1.525.3225 3.061 3.061 0 0 1 1.167 1.0416 3.3908 3.3908 0 0 1 1.318-1.07 3.3633 3.3633 0 0 1 1.666-.2941c2.433 0 3.972 1.6999 3.972 4.2915ZM14.355 5.078V.6187H.4238v30.6385H14.355v-4.4594c-2.8537 0-5.5907-1.1441-7.6086-3.1808-2.018-2.0366-3.1517-4.7988-3.1517-7.6791 0-2.8802 1.1337-5.6425 3.1517-7.679C8.7643 6.2222 11.5013 5.078 14.355 5.078Z"/><path d="M14.3535 5.0776v21.7198c2.8538 0 5.5908-1.1441 7.6087-3.1808 2.018-2.0365 3.1516-4.7988 3.1516-7.6791 0-2.8802-1.1336-5.6425-3.1516-7.679-2.0179-2.0367-4.7549-3.1809-7.6087-3.1809ZM132.946 12.5177c1.263 0 2.287-1.0336 2.287-2.3084 0-1.275-1.024-2.3084-2.287-2.3084-1.264 0-2.288 1.0335-2.288 2.3084 0 1.2748 1.024 2.3084 2.288 2.3084Z"/></g><defs><clipPath id="a"><path fill="#fff" d="M0 0h136v32H0z"/></clipPath></defs></svg>