<svg xmlns="http://www.w3.org/2000/svg" width="160" height="32" fill="none"><g fill="#282938" clip-path="url(#a)"><path d="M24.4466 14.0828a4.3683 4.3683 0 0 0-.998 1.6068 4.4232 4.4232 0 0 0-.2302 1.8853l-.0211-.0215a5.2528 5.2528 0 0 1-.2922 2.2143 5.1892 5.1892 0 0 1-1.1836 1.8834 5.0905 5.0905 0 0 1-1.8548 1.2019 5.0307 5.0307 0 0 1-2.1808.2967l.0211.0214a4.2646 4.2646 0 0 0-2.5443.5597c-.7712.4479-1.3876 1.1265-1.7651 1.9431a4.4451 4.4451 0 0 0-.3445 2.6202c.1534.8886.573 1.7075 1.2014 2.3452.6286.6375 1.4355 1.0628 2.3107 1.2177a4.2595 4.2595 0 0 0 2.5802-.3521c.8039-.384 1.4715-1.0106 1.912-1.794a4.4406 4.4406 0 0 0 .5489-2.584l.0224.0214a5.2534 5.2534 0 0 1 .2921-2.2144 5.189 5.189 0 0 1 1.1837-1.8833 5.0903 5.0903 0 0 1 1.8548-1.2018 5.0277 5.0277 0 0 1 2.1808-.2967l-.0223-.0215a4.2513 4.2513 0 0 0 2.1146-.3498 4.3198 4.3198 0 0 0 1.6875-1.3403 4.4108 4.4108 0 0 0 .8435-1.9997 4.4391 4.4391 0 0 0-.2089-2.1651 4.377 4.377 0 0 0-1.2097-1.7955 4.2864 4.2864 0 0 0-1.9116-.9823 4.2461 4.2461 0 0 0-2.1413.0736 4.297 4.297 0 0 0-1.8418 1.1113h-.0035ZM15.7846 20.3597l-.0223-.0214a4.2016 4.2016 0 0 0 1.8584-.2294 4.252 4.252 0 0 0 1.5825-1.0156 4.337 4.337 0 0 0 1.0014-1.606 4.3906 4.3906 0 0 0 .2273-1.8869l.0223.0215a5.2525 5.2525 0 0 1 .2922-2.2143 5.1892 5.1892 0 0 1 1.1836-1.8834 5.0913 5.0913 0 0 1 1.8548-1.2019 5.0293 5.0293 0 0 1 2.1809-.2967l-.0224-.0214a4.2658 4.2658 0 0 0 2.5452-.5579c.7716-.4474 1.3885-1.1256 1.7666-1.9421a4.4467 4.4467 0 0 0 .3461-2.6204c-.1529-.8888-.5722-1.708-1.2005-2.346-.6283-.638-1.4351-1.0637-2.3105-1.219a4.2593 4.2593 0 0 0-2.5806.3514c-.8042.3839-1.4721 1.0103-1.9127 1.7939a4.4414 4.4414 0 0 0-.5494 2.5843l-.0211-.0227a5.2509 5.2509 0 0 1-.2918 2.2146 5.1882 5.1882 0 0 1-1.1836 1.8836 5.09 5.09 0 0 1-1.855 1.2019 5.0285 5.0285 0 0 1-2.181.2962l.0211.0226a4.2045 4.2045 0 0 0-1.8584.2294 4.2533 4.2533 0 0 0-1.5825 1.0156 4.3382 4.3382 0 0 0-1.0014 1.606 4.3908 4.3908 0 0 0-.2273 1.8869l-.0211-.0214a5.254 5.254 0 0 1-.2927 2.2141 5.1888 5.1888 0 0 1-1.1836 1.8831 5.092 5.092 0 0 1-1.8546 1.2019 5.0299 5.0299 0 0 1-2.1806.2971l.0212.0215a4.2643 4.2643 0 0 0-2.5452.5578c-.7716.4474-1.3885 1.1256-1.7666 1.9421a4.446 4.446 0 0 0-.346 2.6204c.1528.8888.572 1.7081 1.2004 2.3461.6283.638 1.4352 1.0636 2.3105 1.2189a4.26 4.26 0 0 0 2.5807-.3513c.804-.3839 1.472-1.0104 1.9126-1.7939a4.4414 4.4414 0 0 0 .5494-2.5844l.0223.0215a5.2525 5.2525 0 0 1 .2922-2.2143 5.1905 5.1905 0 0 1 1.1836-1.8834 5.0913 5.0913 0 0 1 1.8548-1.2019 5.0307 5.0307 0 0 1 2.1808-.2967ZM7.9145 17.9671a4.3633 4.3633 0 0 0 .9978-1.6068 4.4163 4.4163 0 0 0 .2292-1.8852l.0223.0214a5.2527 5.2527 0 0 1 .2923-2.2149 5.191 5.191 0 0 1 1.1842-1.8838 5.0922 5.0922 0 0 1 1.8557-1.2016 5.029 5.029 0 0 1 2.1815-.296l-.0223-.0214a4.2634 4.2634 0 0 0 2.5441-.5581c.7714-.4474 1.388-1.1254 1.7659-1.9417a4.4452 4.4452 0 0 0 .3456-2.6194c-.1529-.8885-.572-1.7075-1.2-2.3453C17.4827.7766 16.6761.3511 15.8011.1958a4.2582 4.2582 0 0 0-2.5797.351c-.8039.3837-1.4717 1.0098-1.9123 1.793a4.4397 4.4397 0 0 0-.5497 2.5833l-.0211-.0215a5.2531 5.2531 0 0 1-.2922 2.2144 5.189 5.189 0 0 1-1.1836 1.8833 5.092 5.092 0 0 1-1.8548 1.2019 5.0277 5.0277 0 0 1-2.1808.2966l.0211.0215a4.2518 4.2518 0 0 0-2.1144.3503 4.3192 4.3192 0 0 0-1.6872 1.3406 4.411 4.411 0 0 0-.843 1.9997 4.44 4.44 0 0 0 .2091 2.165 4.3784 4.3784 0 0 0 1.2099 1.7952 4.2847 4.2847 0 0 0 1.9116.9821 4.2466 4.2466 0 0 0 2.1412-.0738 4.2971 4.2971 0 0 0 1.8416-1.1113h-.0023ZM44.2852 6.0762h3.4872v17.2311h-3.4872V6.0762ZM49.7482 17.4075c-.0049-1.2383.3523-2.4501 1.0263-3.4821.6739-1.032 1.6344-1.8378 2.7597-2.315a6.073 6.073 0 0 1 3.5615-.3662c1.1966.2385 2.2967.8322 3.1607 1.7061.8641.8738 1.4533 1.9884 1.693 3.2026a6.3449 6.3449 0 0 1-.3464 3.6177c-.4656 1.1445-1.2552 2.123-2.2688 2.8114-1.0137.6885-2.2058 1.056-3.4252 1.056a6.009 6.009 0 0 1-2.3628-.4546 6.0858 6.0858 0 0 1-2.0054-1.3478 6.1918 6.1918 0 0 1-1.3354-2.0308 6.2677 6.2677 0 0 1-.4572-2.3973Zm8.8342 0a2.7438 2.7438 0 0 0-.4864-1.488 2.6817 2.6817 0 0 0-1.2151-.967 2.6368 2.6368 0 0 0-1.5393-.124 2.665 2.665 0 0 0-1.3501.7605 2.731 2.731 0 0 0-.7114 1.3915 2.7542 2.7542 0 0 0 .1648 1.5589c.2045.4919.5474.9116.9857 1.2067.4383.295.9525.4525 1.4784.4524a2.5706 2.5706 0 0 0 1.052-.1942 2.6034 2.6034 0 0 0 .8868-.6065 2.6535 2.6535 0 0 0 .5727-.917 2.6837 2.6837 0 0 0 .1619-1.0733ZM75.9688 11.5059v11.2068c0 3.9654-3.0457 5.6416-6.1373 5.6416a5.8667 5.8667 0 0 1-3.1502-.6452c-.9717-.5048-1.7879-1.2715-2.3589-2.2161l2.9753-1.7466a2.679 2.679 0 0 0 1.096 1.1643 2.6227 2.6227 0 0 0 1.554.3224 2.2824 2.2824 0 0 0 1.0251-.0901 2.3085 2.3085 0 0 0 .8856-.5318 2.3555 2.3555 0 0 0 .5715-.8688 2.3846 2.3846 0 0 0 .1444-1.0345v-1.0788a4.1356 4.1356 0 0 1-1.5175 1.1768 4.0737 4.0737 0 0 1-1.8769.3575c-1.5337-.0491-2.9884-.7022-4.0561-1.8212-1.0678-1.1189-1.6648-2.6158-1.6648-4.1738 0-1.5581.597-3.055 1.6648-4.174 1.0677-1.1188 2.5224-1.772 4.0561-1.8211a4.075 4.075 0 0 1 1.8769.3575 4.137 4.137 0 0 1 1.5175 1.1769v-1.2042l3.3945.0024Zm-3.3933 5.6643a2.8942 2.8942 0 0 0-.4172-1.6215 2.8324 2.8324 0 0 0-1.2399-1.1062 2.7801 2.7801 0 0 0-1.6373-.2113 2.8037 2.8037 0 0 0-1.473.7559 2.8737 2.8737 0 0 0-.8034 1.4639 2.9028 2.9028 0 0 0 .1417 1.6697 2.8535 2.8535 0 0 0 1.0384 1.3027 2.7882 2.7882 0 0 0 1.5787.4889 2.5957 2.5957 0 0 0 1.0793-.1534 2.626 2.626 0 0 0 .9255-.5845 2.6735 2.6735 0 0 0 .6126-.9154c.139-.3451.2053-.716.1946-1.0888ZM77.9435 17.4075c-.0048-1.2383.3523-2.4501 1.0264-3.4821.6739-1.032 1.6344-1.8378 2.7597-2.315a6.0728 6.0728 0 0 1 3.5614-.3662c1.1967.2385 2.2967.8322 3.1608 1.7061.8641.8738 1.4533 1.9884 1.693 3.2026a6.344 6.344 0 0 1-.3464 3.6177c-.4656 1.1445-1.2551 2.123-2.2688 2.8114-1.0137.6885-2.2058 1.056-3.4253 1.056a6.009 6.009 0 0 1-2.3627-.4546 6.0847 6.0847 0 0 1-2.0054-1.3478 6.1918 6.1918 0 0 1-1.3354-2.0308 6.2697 6.2697 0 0 1-.4573-2.3973Zm8.8344 0a2.7448 2.7448 0 0 0-.4865-1.488 2.6814 2.6814 0 0 0-1.2152-.967 2.6365 2.6365 0 0 0-1.5392-.124 2.6652 2.6652 0 0 0-1.3502.7605 2.7309 2.7309 0 0 0-.7113 1.3915 2.755 2.755 0 0 0 .1647 1.5589 2.707 2.707 0 0 0 .9857 1.2067c.4384.295.9525.4525 1.4784.4524a2.5708 2.5708 0 0 0 1.0521-.1942 2.6034 2.6034 0 0 0 .8868-.6065 2.6533 2.6533 0 0 0 .5726-.917 2.6874 2.6874 0 0 0 .1621-1.0733ZM91.8906 8.3423c0-.4202.1227-.831.3527-1.1803a2.098 2.098 0 0 1 .9392-.7825 2.0615 2.0615 0 0 1 1.2084-.1209c.4065.082.7786.2843 1.0716.5814.2921.2972.4921.6757.5721 1.0878.0809.4121.04.8393-.1191 1.2275-.1581.3883-.426.72-.7702.9534a2.0706 2.0706 0 0 1-1.1628.3582c-.5525-.0057-1.0817-.2313-1.473-.6285-.3912-.3972-.6134-.9344-.6189-1.496Zm.3523 3.163h3.4885v11.8029h-3.4932l.0047-11.8029ZM110.789 17.4072a6.0112 6.0112 0 0 1-.329 2.2964 5.9554 5.9554 0 0 1-1.173 1.992 5.8538 5.8538 0 0 1-1.835 1.3819 5.7724 5.7724 0 0 1-2.219.5602 4.3033 4.3033 0 0 1-1.891-.3239 4.3622 4.3622 0 0 1-1.571-1.1163v5.8312h-3.4878V11.5058h3.4878v1.1087a4.3632 4.3632 0 0 1 1.572-1.1153 4.2992 4.2992 0 0 1 1.89-.3237 5.772 5.772 0 0 1 2.219.5599c.695.3334 1.32.8031 1.836 1.3823a5.9586 5.9586 0 0 1 1.173 1.9925c.258.7362.369 1.5168.328 2.297Zm-3.487 0a2.8268 2.8268 0 0 0-.5-1.541 2.7688 2.7688 0 0 0-1.255-1.0034 2.7254 2.7254 0 0 0-1.592-.1312 2.7573 2.7573 0 0 0-1.399.7849c-.38.3956-.637.8962-.738 1.4392a2.862 2.862 0 0 0 .169 1.6132c.212.5091.567.9437 1.02 1.2492.454.3055.986.4684 1.53.4683.373.0169.746-.0466 1.094-.1863.348-.1397.662-.3524.924-.6243a2.704 2.704 0 0 0 .591-.9532c.129-.3565.182-.7365.156-1.1154ZM121.548 19.7666c0 2.7146-2.323 3.8711-4.833 3.8711a5.0261 5.0261 0 0 1-2.924-.6253c-.891-.5007-1.614-1.2613-2.074-2.1836l3.02-1.7465c.123.4262.385.797.744 1.0505.36.2534.793.3741 1.229.3419.837 0 1.255-.2598 1.255-.7308 0-1.2995-5.719-.6139-5.719-4.6973 0-2.574 2.14-3.8712 4.557-3.8712a5.022 5.022 0 0 1 2.606.6339c.797.4442 1.462 1.0972 1.926 1.8913l-2.975 1.6285a1.7106 1.7106 0 0 0-.625-.7571 1.6691 1.6691 0 0 0-.932-.2813c-.604 0-.977.2384-.977.6605.004 1.346 5.722.4483 5.722 4.8154ZM134.289 11.5054v11.8029h-3.487v-1.1099a3.9778 3.9778 0 0 1-1.49 1.126 3.9213 3.9213 0 0 1-1.833.3141c-2.348 0-4.344-1.6989-4.344-4.888v-7.2451h3.487v6.7265c-.029.2811.002.5652.092.8327.091.2675.237.5119.429.7162.193.2042.426.3634.686.4665.259.1032.537.1477.815.1305 1.279 0 2.161-.7546 2.161-2.4308v-6.4381l3.484-.0035ZM154.283 16.0612v7.2463h-3.487v-6.9399c0-1.1803-.559-1.9349-1.674-1.9349-1.162 0-1.814.8261-1.814 2.2187v6.6561h-3.485v-6.9399c0-1.1803-.559-1.9349-1.675-1.9349-1.163 0-1.813.8261-1.813 2.2187v6.6561h-3.487V11.5046h3.487v1.0849c.362-.4813.836-.863 1.381-1.1102a3.5185 3.5185 0 0 1 1.734-.305 3.4117 3.4117 0 0 1 1.724.3711c.534.2729.989.6815 1.321 1.186a3.836 3.836 0 0 1 1.488-1.2198 3.7765 3.7765 0 0 1 1.882-.3373c2.669.0012 4.418 1.9362 4.418 4.8869ZM157.234 11.4325c1.429 0 2.588-1.1764 2.588-2.6276 0-1.4512-1.159-2.6277-2.588-2.6277-1.428 0-2.588 1.1765-2.588 2.6277 0 1.4512 1.16 2.6276 2.588 2.6276Z"/></g><defs><clipPath id="a"><path fill="#fff" d="M0 0h160v32H0z"/></clipPath></defs></svg>