<svg xmlns="http://www.w3.org/2000/svg" width="135" height="32" fill="none"><g fill="#282938" clip-path="url(#a)"><path d="M39.3027 9.3468h3.3812v13.6581h-3.3812V9.3468Zm4.7224 8.5011c0-3.3779 2.0737-5.3934 5.2746-5.3934 3.2008 0 5.2746 2.0155 5.2746 5.3934 0 3.378-2.0288 5.4048-5.2746 5.4048-3.246 0-5.2746-1.9705-5.2746-5.4048Zm7.1567 0c0-1.8578-.7326-2.95-1.8821-2.95-1.1497 0-1.8709 1.126-1.8709 2.95 0 1.8241.71 2.9276 1.8709 2.9276 1.1608 0 1.8821-1.0359 1.8821-2.9163v-.0113Zm4.666 5.8214h3.2459a1.7474 1.7474 0 0 0 1.8258 1.0133c1.2849 0 1.9612-.698 1.9612-1.7114v-1.8917h-.0677a3.1989 3.1989 0 0 1-1.255 1.3948 3.204 3.204 0 0 1-1.8219.4519c-2.4681 0-4.1024-1.8805-4.1024-5.112 0-3.2316 1.5553-5.2696 4.1476-5.2696a3.2376 3.2376 0 0 1 1.8658.5043 3.2333 3.2333 0 0 1 1.2448 1.4774v-1.8804h3.3812v10.2464c0 2.466-2.1753 3.9973-5.3873 3.9973-2.9867 0-4.8463-1.34-5.038-3.209v-.0113Zm7.0441-5.8326c0-1.6439-.7552-2.6799-1.9498-2.6799-1.1947 0-1.9272 1.0247-1.9272 2.6799s.7212 2.5897 1.9272 2.5897c1.2059 0 1.9498-.912 1.9498-2.5785v-.0112Zm4.6547 0c0-3.378 2.0738-5.3935 5.2746-5.3935 3.2008 0 5.2859 2.0155 5.2859 5.3935 0 3.3779-2.0287 5.4047-5.2859 5.4047-3.2571 0-5.2746-1.9592-5.2746-5.3935v-.0112Zm7.1568 0c0-1.8579-.7326-2.9501-1.8822-2.9501-1.1495 0-1.8145 1.1373-1.8145 2.9726s.71 2.9276 1.8596 2.9276 1.8371-1.0472 1.8371-2.9276v-.0225Zm4.6885-7.6455a1.7219 1.7219 0 0 1 1.0252-1.6196 1.726 1.726 0 0 1 1.8896.3292 1.7215 1.7215 0 0 1-.2035 2.6581 1.7252 1.7252 0 0 1-.9531.3101 1.6455 1.6455 0 0 1-1.6264-.9954 1.6424 1.6424 0 0 1-.1318-.6598v-.0226Zm0 2.4772h3.3812v10.3365h-3.3812V12.6684Zm15.6552 5.1683c0 3.3779-1.4992 5.3033-4.0687 5.3033a3.224 3.224 0 0 1-1.8793-.4609 3.2186 3.2186 0 0 1-1.2768-1.4532h-.0677v5.0894h-3.3811V12.6459h3.3811v1.8466h.0677a3.2308 3.2308 0 0 1 1.2519-1.4906 3.2372 3.2372 0 0 1 1.8811-.5024c2.5926.0451 4.1362 1.9818 4.1362 5.3597l-.0444-.0225Zm-3.3812 0c0-1.6439-.7559-2.6911-1.9389-2.6911-1.1835 0-1.9386 1.0584-1.9499 2.6911-.0112 1.6327.7664 2.6799 1.9499 2.6799 1.183 0 1.9389-1.0247 1.9389-2.6574v-.0225Zm9.1851-5.4047c2.806 0 4.508 1.3287 4.587 3.4568h-3.077c0-.732-.608-1.1936-1.544-1.1936-.9357 0-1.3522.3603-1.3522.8896 0 .5291.3721.698 1.1272.8557l2.163.4391c2.064.4391 2.942 1.2724 2.942 2.8375 0 2.1394-1.95 3.5131-4.824 3.5131-2.8737 0-4.7557-1.3737-4.9022-3.4793h3.2568c.1022.7657.7106 1.216 1.7024 1.216.991 0 1.443-.3265 1.443-.8669 0-.5406-.316-.6531-1.127-.8221l-1.95-.4165c-2.0179-.4166-3.0774-1.4863-3.0774-3.0627.0231-2.0268 1.8376-3.3442 4.6324-3.3442v-.0225Zm16.128 10.5504h-3.258V21.057h-.067a2.94 2.94 0 0 1-2.998 2.1506 3.5977 3.5977 0 0 1-1.507-.2384 3.5903 3.5903 0 0 1-1.272-.8416 3.596 3.596 0 0 1-.809-1.2931 3.597 3.597 0 0 1-.199-1.5115v-6.6771h3.382v5.9002c0 1.2273.631 1.8803 1.679 1.8803.246.0006.489-.0514.712-.1525a1.7188 1.7188 0 0 0 .941-1.0695c.072-.2349.092-.4825.06-.7259v-5.8326h3.382l-.046 10.3365Zm1.634-10.3365h3.269v1.993h.067a3.0003 3.0003 0 0 1 1.098-1.5936 3 3 0 0 1 1.844-.5908 2.6978 2.6978 0 0 1 1.878.565c.532.4173.888 1.0196.996 1.6869h.068a3.1701 3.1701 0 0 1 1.203-1.6696 3.1807 3.1807 0 0 1 1.975-.5823 3.285 3.285 0 0 1 1.344.2389c.426.1729.811.4335 1.13.7648.319.3314.565.726.721 1.1583.156.4323.219.8926.186 1.3511v7.0373h-3.381v-6.1366c0-1.1259-.508-1.6439-1.454-1.6439a1.4762 1.4762 0 0 0-1.118.4973c-.14.158-.244.3441-.306.5458-.062.2016-.08.4142-.053.6234v6.114h-3.211v-6.1816c0-1.0359-.507-1.5989-1.432-1.5989a1.514 1.514 0 0 0-1.13.5078 1.5221 1.5221 0 0 0-.311.551 1.5271 1.5271 0 0 0-.058.6302v6.0915h-3.381l.056-10.359ZM29.8466 9.9662a14.9168 14.9168 0 0 0-2.2542-3.6256 15.245 15.245 0 0 0-4.9875-3.9875 15.2609 15.2609 0 0 0-12.4817-.522 15.2499 15.2499 0 0 0-5.3037 3.557 15.2319 15.2319 0 0 0-3.3799 5.4156 15.221 15.221 0 0 0 .9425 12.4451 15.2379 15.2379 0 0 0 4.157 4.8458 14.7575 14.7575 0 0 0 3.6066 2.0605 15.1036 15.1036 0 0 0 5.7142 1.126 15.2896 15.2896 0 0 0 10.7807-4.4799 15.2607 15.2607 0 0 0 4.4682-10.7772 15.0633 15.0633 0 0 0-1.2622-6.0578Zm-13.998-6.114a12.0805 12.0805 0 0 1 5.0943 1.126 4.952 4.952 0 0 1-1.2172.349 6.4605 6.4605 0 0 0-3.6414 1.8232 6.4505 6.4505 0 0 0-1.8249 3.6379 3.3767 3.3767 0 0 1-.9957 2.0348 3.3823 3.3823 0 0 1-2.0586.949 6.4603 6.4603 0 0 0-3.6413 1.8231 6.45 6.45 0 0 0-1.8248 3.6379 3.2751 3.2751 0 0 1-.8904 1.9592 12.15 12.15 0 0 1 .7201-11.7105 12.1678 12.1678 0 0 1 4.4181-4.148A12.1812 12.1812 0 0 1 15.86 3.8297l-.0113.0225ZM6.5279 23.906c.1352-.1239.2705-.2366.4057-.3717a6.1682 6.1682 0 0 0 1.8258-3.6369 3.287 3.287 0 0 1 .9806-2.0493 3.1908 3.1908 0 0 1 2.0399-.9683 6.46 6.46 0 0 0 3.6413-1.8232 6.449 6.449 0 0 0 1.8249-3.6378 3.2872 3.2872 0 0 1 .9805-2.1506 3.2363 3.2363 0 0 1 2.0626-.9346 6.1783 6.1783 0 0 0 3.3811-1.6102 11.8379 11.8379 0 0 1 2.6599 3.1303.9663.9663 0 0 1-.1466.1576 3.2356 3.2356 0 0 1-2.0399.9909 6.4379 6.4379 0 0 0-3.6453 1.8192 6.4268 6.4268 0 0 0-1.8209 3.6418 3.377 3.377 0 0 1-.9772 2.049 3.3818 3.3818 0 0 1-2.0546.9686 6.4948 6.4948 0 0 0-3.6558 1.82 6.4837 6.4837 0 0 0-1.8442 3.641 3.5333 3.5333 0 0 1-.5522 1.5427 12.2742 12.2742 0 0 1-3.0656-2.5785Zm9.3207 4.3462a12.2313 12.2313 0 0 1-3.3811-.4729 6.5045 6.5045 0 0 0 .7212-2.252 3.3773 3.3773 0 0 1 .9729-2.0457 3.3825 3.3825 0 0 1 2.0477-.9719 6.4602 6.4602 0 0 0 3.6481-1.8201 6.4502 6.4502 0 0 0 1.8293-3.6409 3.3765 3.3765 0 0 1 .9729-2.0457 3.3829 3.3829 0 0 1 2.0477-.972 6.4381 6.4381 0 0 0 2.8851-1.1259 12.1715 12.1715 0 0 1 .1646 5.5075 12.1772 12.1772 0 0 1-2.281 5.0168 12.1926 12.1926 0 0 1-4.2599 3.4997 12.2046 12.2046 0 0 1-5.3675 1.2668v.0563Z"/></g><defs><clipPath id="a"><path fill="#fff" d="M0 0h135v32H0z"/></clipPath></defs></svg>