<svg xmlns="http://www.w3.org/2000/svg" width="23" height="23" fill="none"><g clip-path="url(#a)"><path fill="#FFD050" d="m5.8505 6.2114-1.9926.154a1.778 1.778 0 0 0-1.355.7972L.205 10.6383a1.2264 1.2264 0 0 0-.099 1.1775c.1707.3856.5213.6544.938.7189l1.8244.2826c.4268-2.265 1.4485-4.5244 2.9822-6.6059ZM10.1836 20.1316l.2826 1.8245c.0645.4167.3333.7673.7188.9378.1604.071.3302.106.4992.106.2373 0 .473-.0691.6784-.2049l3.4758-2.298a1.7778 1.7778 0 0 0 .7971-1.355l.154-1.9926c-2.0816 1.5338-4.3409 2.5555-6.6059 2.9822ZM9.4966 18.8665c.0633 0 .127-.0052.1906-.0158.9489-.1586 1.8635-.4259 2.736-.7758l-7.4988-7.4987c-.3498.8724-.6171 1.787-.7758 2.736-.0625.374.063.7551.3311 1.0233l4.1842 4.1841a1.18 1.18 0 0 0 .8327.3469Z"/><path fill="#232536" d="M21.1661 10.1973c1.835-3.5476 1.9029-7.2966 1.807-9.0548A1.181 1.181 0 0 0 21.8575.0269 18.5403 18.5403 0 0 0 20.8495 0c-1.966 0-5.0769.2978-8.0468 1.834-2.3603 1.2208-5.4552 3.909-7.2812 7.4417a.6756.6756 0 0 1 .0625.0545l8.0858 8.0859a.6803.6803 0 0 1 .0546.0625c3.5327-1.8261 6.2209-4.921 7.4417-7.2813Zm-7.793-5.335c1.3135-1.3135 3.451-1.3137 4.7646 0 .6364.6363.9868 1.4824.9868 2.3823 0 .9-.3504 1.746-.9868 2.3824-.6567.6567-1.5197.9851-2.3823.9852-.8629 0-1.7254-.3284-2.3823-.9852-.6364-.6364-.9868-1.4825-.9868-2.3824 0-.8999.3504-1.746.9868-2.3823Z"/><path fill="#232536" d="M14.3264 8.674c.7882.7882 2.0707.7882 2.8589 0a2.0083 2.0083 0 0 0 .592-1.4294 2.008 2.008 0 0 0-.592-1.4294c-.3941-.394-.9118-.591-1.4294-.591-.5177 0-1.0354.197-1.4294.591a2.0082 2.0082 0 0 0-.5921 1.4294c0 .54.2103 1.0476.592 1.4294Z"/><path fill="#FFD050" d="M.6875 18.9539a.6715.6715 0 0 0 .4765-.1974l2.2-2.2a.6738.6738 0 1 0-.953-.9529l-2.2 2.2a.6738.6738 0 0 0 .4765 1.1503ZM5.38 17.6202a.6739.6739 0 0 0-.953 0L.1974 21.8498a.6739.6739 0 0 0 .9529.9529l4.2296-4.2296a.6737.6737 0 0 0 0-.9529ZM6.4422 19.6358l-2.2 2.2a.6738.6738 0 0 0 .4765 1.1503.6716.6716 0 0 0 .4765-.1974l2.2-2.1999a.6739.6739 0 0 0-.953-.953Z"/></g><defs><clipPath id="a"><path fill="#fff" d="M0 0h23v23H0z"/></clipPath></defs></svg>