<svg xmlns="http://www.w3.org/2000/svg" width="24" height="24" fill="none"><g clip-path="url(#a)"><path fill="#232536" d="M15.5176 7.0313c0 .7752.631 1.4062 1.4062 1.4062h4.1804c-.0759-.9896-.3054-1.9354-.6726-2.8125h-3.5078c-.7752 0-1.4062.631-1.4062 1.4063Z"/><path fill="#FFD050" d="M6.377 24h8.4375a.7027.7027 0 0 0 .7031-.7031v-3.6094h1.4062v-4.5703L9.893 9.8437H3.5644a.7027.7027 0 0 0-.703.7032c0 2.4904 1.021 4.8759 2.8124 6.5959v6.1541c0 .3886.3145.7031.7031.7031Z"/><path fill="#232536" d="M12.002 0a.7027.7027 0 0 0-.7032.7031v.7032h-2.942C8.0656.5896 7.2924 0 6.377 0 5.2138 0 4.2675.9462 4.2675 2.1094c0 1.1631.9462 2.1094 2.1094 2.1094.9154 0 1.6886-.5896 1.9798-1.4063h2.942V5.625H4.1381c-.2913-.8167-1.0644-1.4063-1.9799-1.4063C.995 4.2188.002 5.165.002 6.3281c0 1.1632.993 2.1094 2.1562 2.1094.9155 0 1.6886-.5896 1.9799-1.4063h7.1607V9.141l6.7497 5.0623a.7025.7025 0 0 1 .2816.5623v4.9219h.7031c1.1632 0 2.1094-.9462 2.1094-2.1094v-3.5156h2.1562a.703.703 0 0 0 .5851-1.0932l-2.1306-3.1256h-4.8295c-1.5511 0-2.8125-1.2613-2.8125-2.8125 0-1.551 1.2614-2.8125 2.8125-2.8125h2.7659C18.0628 1.6865 15.2291 0 12.002 0Z"/></g><defs><clipPath id="a"><path fill="#fff" d="M0 0h24v24H0z"/></clipPath></defs></svg>