<svg xmlns="http://www.w3.org/2000/svg" width="16" height="17" fill="none"><path fill="#232536" d="M5.0334 15.4068c6.0363 0 9.3388-5.3149 9.3388-9.9225 0-.1494-.0031-.3021-.0094-.4515.6424-.4937 1.1969-1.1051 1.6372-1.8056a6.1774 6.1774 0 0 1-1.8841.5478c.685-.4362 1.1978-1.1214 1.4435-1.9287-.6444.4057-1.349.6919-2.0838.8463-.495-.5589-1.1496-.929-1.8625-1.053-.7128-.124-1.4443.005-2.0813.367-.637.362-1.144.9368-1.4426 1.6357-.2986.6988-.3723 1.4827-.2095 2.2305-1.3047-.0695-2.581-.4297-3.7464-1.057-1.1653-.6273-2.1935-1.5078-3.018-2.5844-.419.7677-.5473 1.676-.3586 2.5405.1886.8645.68 1.6202 1.3742 2.1136-.5212-.0176-1.031-.1667-1.4871-.435v.0432c-.0005.8056.2616 1.5865.7417 2.21.4802.6234 1.1487 1.051 1.892 1.21a3.0771 3.0771 0 0 1-1.481.0597c.2098.6928.6179 1.2987 1.1673 1.7333.5495.4345 1.213.6759 1.8978.6905-1.1627.9704-2.5988 1.4967-4.0772 1.4942A6.1996 6.1996 0 0 1 0 13.8402c1.5019 1.0238 3.249 1.5675 5.0334 1.5666Z"/></svg>